<svg width="64" height="64" viewBox="0 0 64 64" fill="none" xmlns="http://www.w3.org/2000/svg">
<path d="M0 16C0 7.16344 7.16344 0 16 0H48C56.8366 0 64 7.16344 64 16V48C64 56.8366 56.8366 64 48 64H16C7.16344 64 0 56.8366 0 48V16Z" fill="#0ABF53"/>
<path fill-rule="evenodd" clip-rule="evenodd" d="M48 22.3816V48H22.418C18.8887 48 16 45.1073 16 41.5727V34.4102C16 30.8757 18.8887 27.983 22.418 27.983H29.3411V38.1753C29.3411 39.1849 30.1656 40.0116 31.175 40.0116H34.6587V25.8247C34.6587 24.8151 33.8342 23.9884 32.825 23.9884H16.4585V16H41.582C45.1126 16 48 18.8927 48 22.3816Z" fill="white"/>
</svg>
