<svg width="64" height="64" viewBox="0 0 64 64" fill="none" xmlns="http://www.w3.org/2000/svg">
<path d="M0 16C0 7.16344 7.16344 0 16 0H48C56.8366 0 64 7.16344 64 16V48C64 56.8366 56.8366 64 48 64H16C7.16344 64 0 56.8366 0 48V16Z" fill="#6772E5"/>
<path d="M29.7247 25.5296C29.7247 24.1584 30.8535 23.6307 32.7234 23.6307C35.4042 23.6307 38.7905 24.4397 41.4715 25.8815V17.6175C38.5437 16.4572 35.6512 16 32.7234 16C25.5623 16 20.8 19.7276 20.8 25.9519C20.8 35.6571 34.2047 34.1101 34.2047 38.2948C34.2047 39.9121 32.7939 40.4397 30.8183 40.4397C27.8905 40.4397 24.1512 39.244 21.188 37.6265V45.9958C24.4687 47.4024 27.7846 48 30.8183 48C38.1556 48 43.2 44.3782 43.2 38.0837C43.1648 27.6046 29.7247 29.4681 29.7247 25.5296Z" fill="white"/>
</svg>
